<?xml version="1.0" encoding="utf-8"?>
<!-- Generator: Adobe Illustrator 24.1.2, SVG Export Plug-In . SVG Version: 6.00 Build 0)  -->
<svg version="1.1" xmlns="http://www.w3.org/2000/svg" xmlns:xlink="http://www.w3.org/1999/xlink" x="0px" y="0px"
	 viewBox="0 0 351.76 83.76" style="enable-background:new 0 0 351.76 83.76;" xml:space="preserve">
<style type="text/css">
	.st0{fill:#001338;}
	.st1{fill:#FFFFFF;}
</style>
<g id="Camada_1">
	<g>
		<rect x="-545.56" y="-36.12" class="st0" width="421.09" height="156"/>
	</g>
	<g>
		<g>
			<g>
				<path class="st1" d="M-337.37,46.13v0.75c0.04,1.11,0.05,2.73,0.05,4.87c0,0.29-0.01,0.71-0.03,1.28
					c-0.02,0.57-0.01,1.05,0.03,1.44c0.04,1.11,0.49,1.93,1.36,2.49c0.87,0.55,1.95,0.83,3.24,0.83c1.35,0,2.43-0.4,3.23-1.2
					c0.8-0.8,1.2-1.86,1.2-3.18c0-2.14-1.18-4.94-3.53-8.4c-0.57-0.82-1.5-2.01-2.78-3.58c-0.93-1.07-1.78-2.14-2.57-3.21
					c-0.96-1.39-1.71-2.73-2.25-4.01c-0.54-1.28-0.8-2.64-0.8-4.06c0-2.14,0.7-3.88,2.09-5.24c1.39-1.35,3.21-2.03,5.45-2.03
					c2.14,0,3.9,0.55,5.29,1.66c1.39,1.11,2.12,2.67,2.19,4.71c0.07,1.78,0.11,4.42,0.11,7.91v0.37h-2.99v-0.75
					c0-1.32-0.02-2.32-0.05-2.99c0-2-0.02-3.51-0.05-4.54c-0.07-1.1-0.52-1.93-1.34-2.49c-0.82-0.55-1.87-0.83-3.16-0.83
					c-1.39,0-2.49,0.37-3.29,1.12c-0.8,0.75-1.2,1.78-1.2,3.1c0,1.57,0.59,3.35,1.76,5.35l1.92,2.62c0.5,0.64,1,1.25,1.5,1.82
					l0.7,0.86c1.93,2.39,3.41,4.54,4.47,6.44c1.05,1.91,1.58,3.97,1.58,6.18c0,2.18-0.69,3.95-2.06,5.32
					c-1.37,1.37-3.18,2.06-5.43,2.06c-2.1,0-3.9-0.55-5.37-1.66c-1.48-1.1-2.22-2.66-2.22-4.65l-0.05-7.97v-0.37H-337.37z"/>
				<path class="st1" d="M-319.07,44.9h12.3v-7.91c0-1.39-0.43-2.58-1.28-3.56c-0.86-0.98-1.98-1.47-3.37-1.47
					c-1.43,0-2.56,0.48-3.4,1.44c-0.84,0.96-1.26,2.16-1.26,3.58v5.35h-2.99v-5.35c0-2.25,0.7-4.13,2.09-5.64s3.24-2.27,5.56-2.27
					c2.32,0,4.17,0.76,5.56,2.27s2.09,3.4,2.09,5.64v15.94c0,2.25-0.7,4.13-2.09,5.64s-3.24,2.27-5.56,2.27
					c-2.35,0-4.22-0.75-5.59-2.25c-1.37-1.5-2.06-3.39-2.06-5.67V44.9z M-306.77,47.9h-9.3v5.03c0,1.46,0.41,2.67,1.23,3.61
					c0.82,0.95,1.96,1.42,3.42,1.42c1.46,0,2.6-0.47,3.42-1.42c0.82-0.94,1.23-2.15,1.23-3.61V47.9z"/>
				<path class="st1" d="M-294.46,44.9h-3.32v-2.99h3.32V31.16c0-2.25,0.7-4.12,2.11-5.61c1.41-1.5,3.27-2.25,5.59-2.25
					c0.5,0,1,0.05,1.5,0.16l1.39,0.21l0.32,0.05v3.32l-0.48-0.11l-1.39-0.48c-0.57-0.14-1.02-0.21-1.34-0.21
					c-1.43,0-2.56,0.48-3.4,1.44c-0.84,0.96-1.26,2.16-1.26,3.58v10.64h7.97v2.99h-7.97v15.24h-3.05V44.9z"/>
				<path class="st1" d="M-262.15,44.9h-12.3v7.86c0,1.43,0.42,2.63,1.26,3.61c0.84,0.98,1.97,1.47,3.4,1.47
					c1.03,0,1.92-0.27,2.65-0.8c0.73-0.53,1.27-1.28,1.63-2.25c0.29-0.82,0.43-1.94,0.43-3.37l-0.05-3.58v-0.37h2.99v5.29
					c0,2.25-0.69,4.14-2.06,5.7c-1.37,1.55-3.24,2.33-5.59,2.33c-1.57,0-2.92-0.37-4.06-1.1c-1.14-0.73-2.02-1.7-2.65-2.91
					c-0.62-1.21-0.94-2.55-0.94-4.01V36.83c0-2.25,0.7-4.11,2.09-5.59c1.39-1.48,3.24-2.22,5.56-2.22c2.35,0,4.22,0.74,5.59,2.22
					c1.37,1.48,2.06,3.34,2.06,5.59V44.9z M-274.45,41.91h9.3v-5.08c0-1.42-0.42-2.61-1.26-3.56c-0.84-0.94-1.97-1.42-3.4-1.42
					c-1.46,0-2.6,0.46-3.42,1.39c-0.82,0.93-1.23,2.12-1.23,3.58V41.91z"/>
				<path class="st1" d="M-253.26,22.87h3.26l-2.89,8.29h-3.26L-253.26,22.87z"/>
				<path class="st1" d="M-239.08,40.09l1.92,2.03c0.46,0.39,1.2,1.05,2.19,1.98c2,1.85,3.52,3.47,4.57,4.84
					c1.05,1.37,1.58,2.83,1.58,4.36c0,2.21-0.69,4.01-2.06,5.4s-3.2,2.08-5.48,2.08c-2.1,0-3.9-0.56-5.4-1.68
					c-1.5-1.12-2.25-2.68-2.25-4.68v-6.95h2.94v6.95c0,1.07,0.47,1.9,1.42,2.49c0.94,0.59,2.04,0.88,3.29,0.88
					c1.36,0,2.45-0.41,3.29-1.23c0.84-0.82,1.26-1.89,1.26-3.21c0-0.78-0.41-1.75-1.23-2.89c-0.82-1.14-1.71-2.17-2.67-3.1
					c-0.25-0.29-0.84-0.8-1.77-1.55c-0.64-0.5-1.25-1-1.82-1.5c-3.07-2.99-4.6-5.72-4.6-8.18c0-2.14,0.7-3.86,2.11-5.16
					c1.41-1.3,3.24-1.95,5.48-1.95c2.07,0,3.83,0.55,5.29,1.66c1.46,1.11,2.19,2.66,2.19,4.65v6.79h-2.94v-6.79
					c0-1.07-0.47-1.91-1.42-2.51c-0.94-0.61-2.04-0.91-3.29-0.91c-1.43,0-2.51,0.37-3.26,1.1c-0.75,0.73-1.12,1.77-1.12,3.13
					C-240.85,37.38-240.26,38.7-239.08,40.09z"/>
			</g>
			<g>
				<path class="st1" d="M-199.16,23.62v36.53h-1.5v-18.5h-11.66v18.5h-1.5V23.62h1.5v16.58h11.66V23.62H-199.16z"/>
				<path class="st1" d="M-179.15,29.44v23.91c0,4.17-2.57,7.43-7.01,7.43c-4.39,0-7.01-3.26-7.01-7.43V29.44h1.5v23.91
					c0,3.32,2.09,5.94,5.51,5.94c3.37,0,5.51-2.62,5.51-5.94V29.44H-179.15z"/>
				<path class="st1" d="M-173.15,53.46V23.62h1.5v8.5c1.28-1.76,3.21-2.62,5.51-2.62c4.44,0,7.01,3.32,7.01,7.49v16.47
					c0,4.17-2.57,7.43-7.01,7.43C-170.53,60.89-173.15,57.63-173.15,53.46z M-160.63,53.46V36.99c0-3.37-2.09-5.99-5.51-5.99
					c-3.37,0-5.51,2.73-5.51,5.99v16.47c0,3.26,2.14,5.94,5.51,5.94C-162.72,59.39-160.63,56.77-160.63,53.46z"/>
			</g>
		</g>
		<polygon class="st1" points="-459.45,0 -510.89,12.02 -428.52,38.07 -428.52,83.76 -376.89,61.7 -376.89,21.02 		"/>
	</g>
</g>
<g id="Camada_5">
	<g>
		<rect x="-509.03" y="325.88" class="st0" width="254" height="231"/>
	</g>
	<g>
		<g>
			<g>
				<path class="st1" d="M-469.65,505.78v0.75c0.04,1.11,0.05,2.73,0.05,4.87c0,0.29-0.01,0.71-0.03,1.28
					c-0.02,0.57-0.01,1.05,0.03,1.44c0.04,1.11,0.49,1.93,1.36,2.49c0.87,0.55,1.95,0.83,3.24,0.83c1.35,0,2.43-0.4,3.23-1.2
					c0.8-0.8,1.2-1.86,1.2-3.18c0-2.14-1.18-4.94-3.53-8.4c-0.57-0.82-1.5-2.01-2.78-3.58c-0.93-1.07-1.78-2.14-2.57-3.21
					c-0.96-1.39-1.71-2.73-2.25-4.01c-0.54-1.28-0.8-2.64-0.8-4.06c0-2.14,0.7-3.88,2.09-5.24c1.39-1.35,3.21-2.03,5.45-2.03
					c2.14,0,3.9,0.55,5.29,1.66c1.39,1.11,2.12,2.67,2.19,4.71c0.07,1.78,0.11,4.42,0.11,7.91v0.37h-2.99v-0.75
					c0-1.32-0.02-2.32-0.05-2.99c0-2-0.02-3.51-0.05-4.54c-0.07-1.1-0.52-1.93-1.34-2.49c-0.82-0.55-1.87-0.83-3.15-0.83
					c-1.39,0-2.49,0.37-3.29,1.12c-0.8,0.75-1.2,1.78-1.2,3.1c0,1.57,0.59,3.35,1.76,5.35l1.92,2.62c0.5,0.64,1,1.25,1.5,1.82
					l0.7,0.86c1.93,2.39,3.41,4.54,4.46,6.44c1.05,1.91,1.58,3.97,1.58,6.18c0,2.18-0.69,3.95-2.06,5.32
					c-1.37,1.37-3.18,2.06-5.43,2.06c-2.1,0-3.9-0.55-5.37-1.66c-1.48-1.1-2.22-2.66-2.22-4.65l-0.05-7.97v-0.37H-469.65z"/>
				<path class="st1" d="M-451.35,504.55h12.3v-7.91c0-1.39-0.43-2.58-1.28-3.56c-0.86-0.98-1.98-1.47-3.37-1.47
					c-1.43,0-2.56,0.48-3.4,1.44c-0.84,0.96-1.26,2.16-1.26,3.58v5.35h-2.99v-5.35c0-2.25,0.7-4.13,2.09-5.64
					c1.39-1.52,3.24-2.27,5.56-2.27c2.32,0,4.17,0.76,5.56,2.27c1.39,1.52,2.09,3.4,2.09,5.64v15.94c0,2.25-0.7,4.13-2.09,5.64
					c-1.39,1.52-3.24,2.27-5.56,2.27c-2.35,0-4.22-0.75-5.59-2.25c-1.37-1.5-2.06-3.39-2.06-5.67V504.55z M-439.05,507.54h-9.3v5.03
					c0,1.46,0.41,2.67,1.23,3.61c0.82,0.95,1.96,1.42,3.42,1.42c1.46,0,2.6-0.47,3.42-1.42c0.82-0.94,1.23-2.15,1.23-3.61V507.54z"
					/>
				<path class="st1" d="M-426.74,504.55h-3.32v-2.99h3.32v-10.75c0-2.25,0.7-4.12,2.11-5.61c1.41-1.5,3.27-2.25,5.59-2.25
					c0.5,0,1,0.05,1.5,0.16l1.39,0.21l0.32,0.05v3.32l-0.48-0.11l-1.39-0.48c-0.57-0.14-1.02-0.21-1.34-0.21
					c-1.43,0-2.56,0.48-3.4,1.44c-0.84,0.96-1.26,2.16-1.26,3.58v10.64h7.97v2.99h-7.97v15.24h-3.05V504.55z"/>
				<path class="st1" d="M-394.43,504.55h-12.3v7.86c0,1.43,0.42,2.63,1.26,3.61c0.84,0.98,1.97,1.47,3.4,1.47
					c1.03,0,1.92-0.27,2.65-0.8c0.73-0.53,1.27-1.28,1.63-2.25c0.29-0.82,0.43-1.94,0.43-3.37l-0.05-3.58v-0.37h2.99v5.29
					c0,2.25-0.69,4.14-2.06,5.7c-1.37,1.55-3.24,2.33-5.59,2.33c-1.57,0-2.92-0.37-4.06-1.1c-1.14-0.73-2.02-1.7-2.65-2.91
					c-0.62-1.21-0.94-2.55-0.94-4.01v-15.94c0-2.25,0.7-4.11,2.09-5.59c1.39-1.48,3.24-2.22,5.56-2.22c2.35,0,4.22,0.74,5.59,2.22
					c1.37,1.48,2.06,3.34,2.06,5.59V504.55z M-406.73,501.56h9.3v-5.08c0-1.42-0.42-2.61-1.26-3.56c-0.84-0.94-1.97-1.42-3.4-1.42
					c-1.46,0-2.6,0.46-3.42,1.39c-0.82,0.93-1.23,2.12-1.23,3.58V501.56z"/>
				<path class="st1" d="M-385.54,482.52h3.26l-2.89,8.29h-3.26L-385.54,482.52z"/>
				<path class="st1" d="M-371.36,499.74l1.92,2.03c0.46,0.39,1.2,1.05,2.19,1.98c2,1.85,3.52,3.47,4.57,4.84
					c1.05,1.37,1.58,2.83,1.58,4.36c0,2.21-0.69,4.01-2.06,5.4c-1.37,1.39-3.2,2.08-5.48,2.08c-2.1,0-3.9-0.56-5.4-1.68
					c-1.5-1.12-2.25-2.68-2.25-4.68v-6.95h2.94v6.95c0,1.07,0.47,1.9,1.42,2.49c0.94,0.59,2.04,0.88,3.29,0.88
					c1.36,0,2.45-0.41,3.29-1.23c0.84-0.82,1.26-1.89,1.26-3.21c0-0.78-0.41-1.75-1.23-2.89c-0.82-1.14-1.71-2.17-2.67-3.1
					c-0.25-0.29-0.84-0.8-1.77-1.55c-0.64-0.5-1.25-1-1.82-1.5c-3.07-2.99-4.6-5.72-4.6-8.18c0-2.14,0.7-3.86,2.11-5.16
					c1.41-1.3,3.24-1.95,5.48-1.95c2.07,0,3.83,0.55,5.29,1.66c1.46,1.11,2.19,2.66,2.19,4.65v6.79h-2.94v-6.79
					c0-1.07-0.47-1.91-1.42-2.51c-0.94-0.61-2.04-0.91-3.29-0.91c-1.43,0-2.51,0.37-3.26,1.1c-0.75,0.73-1.12,1.77-1.12,3.13
					C-373.13,497.03-372.54,498.35-371.36,499.74z"/>
			</g>
			<g>
				<path class="st1" d="M-331.44,483.26v36.53h-1.5v-18.5h-11.66v18.5h-1.5v-36.53h1.5v16.58h11.66v-16.58H-331.44z"/>
				<path class="st1" d="M-311.43,489.09V513c0,4.17-2.57,7.43-7.01,7.43c-4.39,0-7.01-3.26-7.01-7.43v-23.91h1.5V513
					c0,3.32,2.09,5.94,5.51,5.94c3.37,0,5.51-2.62,5.51-5.94v-23.91H-311.43z"/>
				<path class="st1" d="M-305.43,513.1v-29.84h1.5v8.5c1.28-1.76,3.21-2.62,5.51-2.62c4.44,0,7.01,3.32,7.01,7.49v16.47
					c0,4.17-2.57,7.43-7.01,7.43C-302.8,520.54-305.43,517.28-305.43,513.1z M-292.91,513.1v-16.47c0-3.37-2.09-5.99-5.51-5.99
					c-3.37,0-5.51,2.73-5.51,5.99v16.47c0,3.26,2.14,5.94,5.51,5.94C-295,519.04-292.91,516.42-292.91,513.1z"/>
			</g>
		</g>
		<polygon class="st1" points="-397.59,362.23 -449.03,374.25 -366.66,400.29 -366.66,445.99 -315.03,423.92 -315.03,383.25 		"/>
	</g>
</g>
<g id="Camada_4">
	<g>
		<g>
			<g>
				<g>
					<path class="st0" d="M-22.65,505.78v0.75c0.04,1.11,0.05,2.73,0.05,4.87c0,0.29-0.01,0.71-0.03,1.28
						c-0.02,0.57-0.01,1.05,0.03,1.44c0.04,1.11,0.49,1.93,1.36,2.49c0.87,0.55,1.95,0.83,3.24,0.83c1.35,0,2.43-0.4,3.23-1.2
						c0.8-0.8,1.2-1.86,1.2-3.18c0-2.14-1.18-4.94-3.53-8.4c-0.57-0.82-1.5-2.01-2.78-3.58c-0.93-1.07-1.78-2.14-2.57-3.21
						c-0.96-1.39-1.71-2.73-2.25-4.01c-0.54-1.28-0.8-2.64-0.8-4.06c0-2.14,0.7-3.88,2.09-5.24c1.39-1.35,3.21-2.03,5.45-2.03
						c2.14,0,3.9,0.55,5.29,1.66c1.39,1.11,2.12,2.67,2.19,4.71c0.07,1.78,0.11,4.42,0.11,7.91v0.37h-2.99v-0.75
						c0-1.32-0.02-2.32-0.05-2.99c0-2-0.02-3.51-0.05-4.54c-0.07-1.1-0.52-1.93-1.34-2.49c-0.82-0.55-1.87-0.83-3.16-0.83
						c-1.39,0-2.49,0.37-3.29,1.12c-0.8,0.75-1.2,1.78-1.2,3.1c0,1.57,0.59,3.35,1.76,5.35l1.92,2.62c0.5,0.64,1,1.25,1.5,1.82
						l0.7,0.86c1.93,2.39,3.41,4.54,4.47,6.44c1.05,1.91,1.58,3.97,1.58,6.18c0,2.18-0.69,3.95-2.06,5.32
						c-1.37,1.37-3.18,2.06-5.43,2.06c-2.1,0-3.9-0.55-5.37-1.66c-1.48-1.1-2.22-2.66-2.22-4.65l-0.05-7.97v-0.37H-22.65z"/>
				</g>
				<g>
					<path class="st0" d="M-4.35,504.55h12.3v-7.91c0-1.39-0.43-2.58-1.28-3.56c-0.86-0.98-1.98-1.47-3.37-1.47
						c-1.43,0-2.56,0.48-3.4,1.44c-0.84,0.96-1.26,2.16-1.26,3.58v5.35h-2.99v-5.35c0-2.25,0.7-4.13,2.09-5.64
						c1.39-1.52,3.24-2.27,5.56-2.27c2.32,0,4.17,0.76,5.56,2.27c1.39,1.52,2.09,3.4,2.09,5.64v15.94c0,2.25-0.7,4.13-2.09,5.64
						c-1.39,1.52-3.24,2.27-5.56,2.27c-2.35,0-4.22-0.75-5.59-2.25c-1.37-1.5-2.06-3.39-2.06-5.67V504.55z M7.95,507.54h-9.3v5.03
						c0,1.46,0.41,2.67,1.23,3.61c0.82,0.95,1.96,1.42,3.42,1.42c1.46,0,2.6-0.47,3.42-1.42c0.82-0.94,1.23-2.15,1.23-3.61V507.54z"
						/>
				</g>
				<g>
					<path class="st0" d="M20.26,504.55h-3.32v-2.99h3.32v-10.75c0-2.25,0.7-4.12,2.11-5.61c1.41-1.5,3.27-2.25,5.59-2.25
						c0.5,0,1,0.05,1.5,0.16l1.39,0.21l0.32,0.05v3.32l-0.48-0.11l-1.39-0.48c-0.57-0.14-1.02-0.21-1.34-0.21
						c-1.43,0-2.56,0.48-3.4,1.44c-0.84,0.96-1.26,2.16-1.26,3.58v10.64h7.97v2.99h-7.97v15.24h-3.05V504.55z"/>
				</g>
				<g>
					<path class="st0" d="M52.57,504.55h-12.3v7.86c0,1.43,0.42,2.63,1.26,3.61c0.84,0.98,1.97,1.47,3.4,1.47
						c1.03,0,1.92-0.27,2.65-0.8c0.73-0.53,1.27-1.28,1.63-2.25c0.29-0.82,0.43-1.94,0.43-3.37l-0.05-3.58v-0.37h2.99v5.29
						c0,2.25-0.69,4.14-2.06,5.7c-1.37,1.55-3.24,2.33-5.59,2.33c-1.57,0-2.92-0.37-4.06-1.1c-1.14-0.73-2.02-1.7-2.65-2.91
						c-0.62-1.21-0.94-2.55-0.94-4.01v-15.94c0-2.25,0.7-4.11,2.09-5.59c1.39-1.48,3.24-2.22,5.56-2.22c2.35,0,4.22,0.74,5.59,2.22
						c1.37,1.48,2.06,3.34,2.06,5.59V504.55z M40.27,501.56h9.3v-5.08c0-1.42-0.42-2.61-1.26-3.56c-0.84-0.94-1.97-1.42-3.4-1.42
						c-1.46,0-2.6,0.46-3.42,1.39c-0.82,0.93-1.23,2.12-1.23,3.58V501.56z"/>
				</g>
				<g>
					<path class="st0" d="M61.46,482.52h3.26l-2.89,8.29h-3.26L61.46,482.52z"/>
				</g>
				<g>
					<path class="st0" d="M75.64,499.74l1.92,2.03c0.46,0.39,1.2,1.05,2.19,1.98c2,1.85,3.52,3.47,4.57,4.84
						c1.05,1.37,1.58,2.83,1.58,4.36c0,2.21-0.69,4.01-2.06,5.4c-1.37,1.39-3.2,2.08-5.48,2.08c-2.1,0-3.9-0.56-5.4-1.68
						c-1.5-1.12-2.25-2.68-2.25-4.68v-6.95h2.94v6.95c0,1.07,0.47,1.9,1.42,2.49c0.94,0.59,2.04,0.88,3.29,0.88
						c1.36,0,2.45-0.41,3.29-1.23c0.84-0.82,1.26-1.89,1.26-3.21c0-0.78-0.41-1.75-1.23-2.89c-0.82-1.14-1.71-2.17-2.67-3.1
						c-0.25-0.29-0.84-0.8-1.77-1.55c-0.64-0.5-1.25-1-1.82-1.5c-3.07-2.99-4.6-5.72-4.6-8.18c0-2.14,0.7-3.86,2.11-5.16
						c1.41-1.3,3.24-1.95,5.48-1.95c2.07,0,3.83,0.55,5.29,1.66c1.46,1.11,2.19,2.66,2.19,4.65v6.79h-2.94v-6.79
						c0-1.07-0.47-1.91-1.42-2.51c-0.94-0.61-2.04-0.91-3.29-0.91c-1.43,0-2.51,0.37-3.26,1.1c-0.75,0.73-1.12,1.77-1.12,3.13
						C73.87,497.03,74.46,498.35,75.64,499.74z"/>
				</g>
			</g>
			<g>
				<g>
					<path class="st0" d="M115.56,483.26v36.53h-1.5v-18.5H102.4v18.5h-1.5v-36.53h1.5v16.58h11.66v-16.58H115.56z"/>
				</g>
				<g>
					<path class="st0" d="M135.57,489.09V513c0,4.17-2.57,7.43-7.01,7.43c-4.39,0-7.01-3.26-7.01-7.43v-23.91h1.5V513
						c0,3.32,2.09,5.94,5.51,5.94c3.37,0,5.51-2.62,5.51-5.94v-23.91H135.57z"/>
				</g>
				<g>
					<path class="st0" d="M141.57,513.1v-29.84h1.5v8.5c1.28-1.76,3.21-2.62,5.51-2.62c4.44,0,7.01,3.32,7.01,7.49v16.47
						c0,4.17-2.57,7.43-7.01,7.43C144.2,520.54,141.57,517.28,141.57,513.1z M154.09,513.1v-16.47c0-3.37-2.09-5.99-5.51-5.99
						c-3.37,0-5.51,2.73-5.51,5.99v16.47c0,3.26,2.14,5.94,5.51,5.94C152,519.04,154.09,516.42,154.09,513.1z"/>
				</g>
			</g>
		</g>
		<g>
			<polygon class="st0" points="49.41,362.23 -2.03,374.25 80.34,400.29 80.34,445.99 131.97,423.92 131.97,383.25 			"/>
		</g>
	</g>
</g>
<g id="Camada_6">
	<g>
		<g>
			<g>
				<path class="st1" d="M173.52,46.13v0.75c0.04,1.11,0.05,2.73,0.05,4.87c0,0.29-0.01,0.71-0.03,1.28
					c-0.02,0.57-0.01,1.05,0.03,1.44c0.04,1.11,0.49,1.93,1.36,2.49c0.87,0.55,1.95,0.83,3.24,0.83c1.35,0,2.43-0.4,3.23-1.2
					c0.8-0.8,1.2-1.86,1.2-3.18c0-2.14-1.18-4.94-3.53-8.4c-0.57-0.82-1.5-2.01-2.78-3.58c-0.93-1.07-1.78-2.14-2.57-3.21
					c-0.96-1.39-1.71-2.73-2.25-4.01c-0.54-1.28-0.8-2.64-0.8-4.06c0-2.14,0.7-3.88,2.09-5.24c1.39-1.35,3.21-2.03,5.45-2.03
					c2.14,0,3.9,0.55,5.29,1.66c1.39,1.11,2.12,2.67,2.19,4.71c0.07,1.78,0.11,4.42,0.11,7.91v0.37h-2.99v-0.75
					c0-1.32-0.02-2.32-0.05-2.99c0-2-0.02-3.51-0.05-4.54c-0.07-1.1-0.52-1.93-1.34-2.49c-0.82-0.55-1.87-0.83-3.16-0.83
					c-1.39,0-2.49,0.37-3.29,1.12c-0.8,0.75-1.2,1.78-1.2,3.1c0,1.57,0.59,3.35,1.76,5.35l1.92,2.62c0.5,0.64,1,1.25,1.5,1.82
					l0.7,0.86c1.93,2.39,3.41,4.54,4.47,6.44c1.05,1.91,1.58,3.97,1.58,6.18c0,2.18-0.69,3.95-2.06,5.32
					c-1.37,1.37-3.18,2.06-5.43,2.06c-2.1,0-3.9-0.55-5.37-1.66c-1.48-1.1-2.22-2.66-2.22-4.65l-0.05-7.97v-0.37H173.52z"/>
				<path class="st1" d="M191.82,44.9h12.3v-7.91c0-1.39-0.43-2.58-1.28-3.56c-0.86-0.98-1.98-1.47-3.37-1.47
					c-1.43,0-2.56,0.48-3.4,1.44c-0.84,0.96-1.26,2.16-1.26,3.58v5.35h-2.99v-5.35c0-2.25,0.7-4.13,2.09-5.64s3.24-2.27,5.56-2.27
					c2.32,0,4.17,0.76,5.56,2.27s2.09,3.4,2.09,5.64v15.94c0,2.25-0.7,4.13-2.09,5.64s-3.24,2.27-5.56,2.27
					c-2.35,0-4.22-0.75-5.59-2.25c-1.37-1.5-2.06-3.39-2.06-5.67V44.9z M204.12,47.9h-9.3v5.03c0,1.46,0.41,2.67,1.23,3.61
					c0.82,0.95,1.96,1.42,3.42,1.42c1.46,0,2.6-0.47,3.42-1.42c0.82-0.94,1.23-2.15,1.23-3.61V47.9z"/>
				<path class="st1" d="M216.43,44.9h-3.32v-2.99h3.32V31.16c0-2.25,0.7-4.12,2.11-5.61c1.41-1.5,3.27-2.25,5.59-2.25
					c0.5,0,1,0.05,1.5,0.16l1.39,0.21l0.32,0.05v3.32l-0.48-0.11l-1.39-0.48c-0.57-0.14-1.02-0.21-1.34-0.21
					c-1.43,0-2.56,0.48-3.4,1.44c-0.84,0.96-1.26,2.16-1.26,3.58v10.64h7.97v2.99h-7.97v15.24h-3.05V44.9z"/>
				<path class="st1" d="M248.74,44.9h-12.3v7.86c0,1.43,0.42,2.63,1.26,3.61c0.84,0.98,1.97,1.47,3.4,1.47
					c1.03,0,1.92-0.27,2.65-0.8c0.73-0.53,1.27-1.28,1.63-2.25c0.29-0.82,0.43-1.94,0.43-3.37l-0.05-3.58v-0.37h2.99v5.29
					c0,2.25-0.69,4.14-2.06,5.7c-1.37,1.55-3.24,2.33-5.59,2.33c-1.57,0-2.92-0.37-4.06-1.1c-1.14-0.73-2.02-1.7-2.65-2.91
					c-0.62-1.21-0.94-2.55-0.94-4.01V36.83c0-2.25,0.7-4.11,2.09-5.59c1.39-1.48,3.24-2.22,5.56-2.22c2.35,0,4.22,0.74,5.59,2.22
					c1.37,1.48,2.06,3.34,2.06,5.59V44.9z M236.44,41.91h9.3v-5.08c0-1.42-0.42-2.61-1.26-3.56c-0.84-0.94-1.97-1.42-3.4-1.42
					c-1.46,0-2.6,0.46-3.42,1.39c-0.82,0.93-1.23,2.12-1.23,3.58V41.91z"/>
				<path class="st1" d="M257.63,22.87h3.26L258,31.16h-3.26L257.63,22.87z"/>
				<path class="st1" d="M271.81,40.09l1.92,2.03c0.46,0.39,1.2,1.05,2.19,1.98c2,1.85,3.52,3.47,4.57,4.84
					c1.05,1.37,1.58,2.83,1.58,4.36c0,2.21-0.69,4.01-2.06,5.4s-3.2,2.08-5.48,2.08c-2.1,0-3.9-0.56-5.4-1.68
					c-1.5-1.12-2.25-2.68-2.25-4.68v-6.95h2.94v6.95c0,1.07,0.47,1.9,1.42,2.49c0.94,0.59,2.04,0.88,3.29,0.88
					c1.36,0,2.45-0.41,3.29-1.23c0.84-0.82,1.26-1.89,1.26-3.21c0-0.78-0.41-1.75-1.23-2.89c-0.82-1.14-1.71-2.17-2.67-3.1
					c-0.25-0.29-0.84-0.8-1.77-1.55c-0.64-0.5-1.25-1-1.82-1.5c-3.07-2.99-4.6-5.72-4.6-8.18c0-2.14,0.7-3.86,2.11-5.16
					c1.41-1.3,3.24-1.95,5.48-1.95c2.07,0,3.83,0.55,5.29,1.66c1.46,1.11,2.19,2.66,2.19,4.65v6.79h-2.94v-6.79
					c0-1.07-0.47-1.91-1.42-2.51c-0.94-0.61-2.04-0.91-3.29-0.91c-1.43,0-2.51,0.37-3.26,1.1c-0.75,0.73-1.12,1.77-1.12,3.13
					C270.05,37.38,270.63,38.7,271.81,40.09z"/>
			</g>
			<g>
				<path class="st1" d="M311.73,23.62v36.53h-1.5v-18.5h-11.66v18.5h-1.5V23.62h1.5v16.58h11.66V23.62H311.73z"/>
				<path class="st1" d="M331.75,29.44v23.91c0,4.17-2.57,7.43-7.01,7.43c-4.39,0-7.01-3.26-7.01-7.43V29.44h1.5v23.91
					c0,3.32,2.09,5.94,5.51,5.94c3.37,0,5.51-2.62,5.51-5.94V29.44H331.75z"/>
				<path class="st1" d="M337.75,53.46V23.62h1.5v8.5c1.28-1.76,3.21-2.62,5.51-2.62c4.44,0,7.01,3.32,7.01,7.49v16.47
					c0,4.17-2.57,7.43-7.01,7.43C340.37,60.89,337.75,57.63,337.75,53.46z M350.26,53.46V36.99c0-3.37-2.09-5.99-5.51-5.99
					c-3.37,0-5.51,2.73-5.51,5.99v16.47c0,3.26,2.14,5.94,5.51,5.94C348.18,59.39,350.26,56.77,350.26,53.46z"/>
			</g>
		</g>
		<polygon class="st1" points="51.44,0 0,12.02 82.37,38.07 82.37,83.76 134,61.7 134,21.02 		"/>
	</g>
</g>
</svg>
